<!DOCTYPE svg PUBLIC "-//W3C//DTD SVG 1.1//EN" "http://www.w3.org/Graphics/SVG/1.1/DTD/svg11.dtd">
<!-- Uploaded to: SVG Repo, www.svgrepo.com, Transformed by: SVG Repo Mixer Tools -->
<svg fill="#c7c7c7" height="800px" width="800px" version="1.1" id="Layer_1" xmlns="http://www.w3.org/2000/svg" xmlns:xlink="http://www.w3.org/1999/xlink" viewBox="0 0 512 512" xml:space="preserve" stroke="#c7c7c7">
<g id="SVGRepo_bgCarrier" stroke-width="0"/>
<g id="SVGRepo_tracerCarrier" stroke-linecap="round" stroke-linejoin="round"/>
<g id="SVGRepo_iconCarrier"> <g> <g> <path d="M482.723,369.587L512,345.19l-76.702-92.043h-47.351c-0.742-11.186-2.083-22.177-3.998-32.88h59.247L459.48,89.995 l-37.816-4.727l-12.111,96.889h-35.264c-5.691-17.007-13.004-32.806-21.814-46.903c-10.69-17.102-23.056-30.915-36.603-41.148 l40.323-51.523l-30.011-23.488l-44.983,57.477c-8.195-2.306-16.618-3.5-25.199-3.5c-8.581,0-17.005,1.193-25.199,3.5 l-44.981-57.476l-30.011,23.488l40.323,51.523c-13.547,10.232-25.913,24.045-36.603,41.148 c-8.811,14.097-16.122,29.896-21.814,46.903h-35.264L90.338,85.269l-37.816,4.727l16.284,130.273h59.247 c-1.916,10.702-3.256,21.693-3.999,32.88H76.702L0,345.189l29.277,24.397l65.276-78.329h29.301 c0.898,16.17,3.045,31.955,6.368,47.077H101.64L39.82,477.428l34.825,15.478l51.762-116.463h15.244 c5.004,12.889,10.978,24.978,17.877,36.018c20.711,33.136,47.706,53.957,77.419,60.192V265.103h38.11v207.548 c29.713-6.236,56.707-27.055,77.417-60.192c6.899-11.038,12.873-23.128,17.877-36.017h15.244l51.762,116.463l34.825-15.478 l-61.82-139.095h-28.582c3.323-15.121,5.47-30.906,6.368-47.077h29.301v0.001L482.723,369.587z M319.516,220.268H192.483v-38.11 h127.032V220.268z"/> </g> </g> </g>
</svg>